<svg width="410" height="734" viewBox="0 0 410 734" fill="none" xmlns="http://www.w3.org/2000/svg">
<path d="M237.29 759C237.29 759 390.42 726.57 396.727 639.926C403.034 553.283 165.129 622.74 260.369 441.926C355.61 261.113 441.687 256.637 396.727 143.926C351.767 31.2153 231.04 -27.9532 90.7896 16.8005C-49.4613 61.5541 -62.6634 348.926 -62.6634 348.926" stroke="#D0D5F6" stroke-width="2"/>
<path d="M195.3 759C195.3 759 315.425 730.519 320.372 654.425C325.32 578.332 138.693 639.331 213.406 480.535C288.118 321.738 355.641 317.808 320.372 218.821C285.103 119.835 190.398 67.8709 80.3774 107.175C-29.6435 146.479 -40 398.859 -40 398.859" stroke="#D0D5F6" stroke-width="2"/>
<path d="M159.065 761C159.065 761 249.97 736.159 253.714 669.792C257.458 603.425 116.227 656.627 172.766 518.128C229.305 379.629 280.404 376.201 253.714 289.867C227.024 203.532 155.355 158.211 72.0964 192.491C-11.1626 226.771 -19 446.892 -19 446.892" stroke="#D0D5F6" stroke-width="2"/>
</svg>
